<svg xmlns="http://www.w3.org/2000/svg" viewBox="0 -0.5 46 11" shape-rendering="crispEdges">
<metadata>Made with Pixels to Svg https://codepen.io/shshaw/pen/XbxvNj</metadata>
<path stroke="#404040" d="M0 0h7M0 1h1M6 1h1M0 2h1M2 2h5M0 3h1M2 3h1M8 3h5M15 3h6M23 3h6M32 3h5M39 3h6M0 4h1M2 4h4M7 4h2M12 4h2M15 4h1M17 4h1M20 4h2M23 4h1M28 4h2M31 4h2M36 4h2M39 4h1M41 4h1M44 4h2M0 5h1M5 5h1M7 5h1M9 5h3M13 5h1M15 5h1M18 5h2M21 5h1M23 5h1M25 5h1M27 5h1M29 5h1M31 5h1M33 5h3M37 5h1M39 5h1M42 5h2M45 5h1M0 6h1M2 6h4M7 6h1M9 6h3M13 6h1M15 6h1M17 6h5M23 6h1M25 6h1M27 6h1M29 6h1M31 6h1M33 6h3M37 6h1M39 6h1M41 6h5M0 7h1M2 7h1M7 7h1M13 7h1M15 7h1M17 7h1M23 7h1M25 7h1M27 7h1M29 7h1M31 7h1M37 7h1M39 7h1M41 7h1M0 8h1M2 8h1M7 8h1M9 8h5M15 8h1M17 8h1M23 8h1M25 8h1M27 8h1M29 8h1M31 8h1M33 8h5M39 8h1M41 8h1M0 9h1M2 9h1M7 9h2M13 9h1M15 9h1M17 9h1M23 9h1M25 9h1M27 9h1M29 9h1M31 9h2M37 9h1M39 9h1M41 9h1M0 10h3M8 10h6M15 10h3M23 10h7M32 10h6M39 10h3" />
<path stroke="#f8f0e0" d="M1 1h5M1 2h1M1 3h1M1 4h1M9 4h3M16 4h1M18 4h2M24 4h4M33 4h3M40 4h1M42 4h2M1 5h4M8 5h1M12 5h1M16 5h2M20 5h1M24 5h1M26 5h1M28 5h1M32 5h1M36 5h1M40 5h2M44 5h1M1 6h1M8 6h1M12 6h1M16 6h1M24 6h1M26 6h1M28 6h1M32 6h1M36 6h1M40 6h1M1 7h1M8 7h5M16 7h1M24 7h1M26 7h1M28 7h1M32 7h5M40 7h1M1 8h1M8 8h1M16 8h1M24 8h1M26 8h1M28 8h1M32 8h1M40 8h1M1 9h1M9 9h4M16 9h1M24 9h1M26 9h1M28 9h1M33 9h4M40 9h1" />
</svg>