<svg xmlns="http://www.w3.org/2000/svg" viewBox="0 -0.5 39 12" shape-rendering="crispEdges">
<metadata>Made with Pixels to Svg https://codepen.io/shshaw/pen/XbxvNj</metadata>
<path stroke="#383838" d="M1 0h5M0 1h2M5 1h2M14 1h3M0 2h1M2 2h3M6 2h1M14 2h1M16 2h1M19 2h3M26 2h3M0 3h1M2 3h1M4 3h1M6 3h4M11 3h6M18 3h2M21 3h3M25 3h2M28 3h3M33 3h5M0 4h1M2 4h1M4 4h1M6 4h2M9 4h1M11 4h1M13 4h2M16 4h1M18 4h1M23 4h1M25 4h1M30 4h1M32 4h2M37 4h2M0 5h1M2 5h1M4 5h1M6 5h2M9 5h1M11 5h1M13 5h2M16 5h1M18 5h2M21 5h3M25 5h2M28 5h3M32 5h1M34 5h3M38 5h1M0 6h1M2 6h1M4 6h1M6 6h2M9 6h1M11 6h1M13 6h2M16 6h1M19 6h1M21 6h1M26 6h1M28 6h1M32 6h1M34 6h3M38 6h1M0 7h1M2 7h3M6 7h2M9 7h1M11 7h1M13 7h2M16 7h1M19 7h1M21 7h1M26 7h1M28 7h1M32 7h1M38 7h1M0 8h1M2 8h1M4 8h1M6 8h2M9 8h3M13 8h2M16 8h1M19 8h1M21 8h3M26 8h1M28 8h3M32 8h1M34 8h5M0 9h2M5 9h4M13 9h2M16 9h1M19 9h2M23 9h1M26 9h2M30 9h1M32 9h2M38 9h1M1 10h4M6 10h1M8 10h9M20 10h4M27 10h4M33 10h6M4 11h3" />
<path stroke="#f8f8f8" d="M2 1h3M1 2h1M5 2h1M15 2h1M1 3h1M5 3h1M20 3h1M27 3h1M1 4h1M5 4h1M8 4h1M12 4h1M15 4h1M19 4h4M26 4h4M34 4h3M1 5h1M5 5h1M8 5h1M12 5h1M15 5h1M20 5h1M27 5h1M33 5h1M37 5h1M1 6h1M5 6h1M8 6h1M12 6h1M15 6h1M20 6h1M27 6h1M33 6h1M37 6h1M1 7h1M5 7h1M8 7h1M12 7h1M15 7h1M20 7h1M27 7h1M33 7h5M1 8h1M3 8h1M5 8h1M8 8h1M12 8h1M15 8h1M20 8h1M27 8h1M33 8h1M2 9h3M9 9h4M15 9h1M21 9h2M28 9h2M34 9h4M5 10h1" />
</svg>