<svg xmlns="http://www.w3.org/2000/svg" viewBox="0 -0.5 31 11" shape-rendering="crispEdges">
<metadata>Made with Pixels to Svg https://codepen.io/shshaw/pen/XbxvNj</metadata>
<path stroke="#404040" d="M11 0h3M10 1h2M13 1h1M10 2h1M12 2h2M0 3h6M9 3h5M16 3h6M25 3h5M0 4h1M5 4h2M8 4h2M13 4h2M16 4h1M21 4h2M24 4h2M29 4h2M0 5h1M2 5h1M4 5h1M6 5h1M8 5h1M10 5h3M14 5h1M16 5h1M18 5h1M20 5h1M22 5h1M24 5h1M26 5h3M30 5h1M0 6h1M2 6h1M4 6h1M6 6h1M8 6h1M10 6h3M14 6h1M16 6h1M18 6h1M20 6h1M22 6h1M24 6h1M26 6h1M28 6h1M30 6h1M0 7h1M2 7h1M4 7h1M6 7h1M8 7h1M14 7h1M16 7h1M18 7h1M20 7h1M22 7h1M24 7h1M26 7h1M28 7h1M30 7h1M0 8h1M2 8h1M4 8h1M6 8h1M8 8h1M10 8h5M16 8h1M18 8h1M20 8h1M22 8h1M24 8h1M26 8h3M30 8h1M0 9h1M2 9h1M4 9h1M6 9h1M8 9h2M14 9h1M16 9h1M18 9h1M20 9h1M22 9h1M24 9h2M29 9h2M0 10h7M9 10h6M16 10h7M25 10h5" />
<path stroke="#f8f0e0" d="M12 1h1M11 2h1M1 4h4M10 4h3M17 4h4M26 4h3M1 5h1M3 5h1M5 5h1M9 5h1M13 5h1M17 5h1M19 5h1M21 5h1M25 5h1M29 5h1M1 6h1M3 6h1M5 6h1M9 6h1M13 6h1M17 6h1M19 6h1M21 6h1M25 6h1M29 6h1M1 7h1M3 7h1M5 7h1M9 7h5M17 7h1M19 7h1M21 7h1M25 7h1M29 7h1M1 8h1M3 8h1M5 8h1M9 8h1M17 8h1M19 8h1M21 8h1M25 8h1M29 8h1M1 9h1M3 9h1M5 9h1M10 9h4M17 9h1M19 9h1M21 9h1M26 9h3" />
</svg>