<svg xmlns="http://www.w3.org/2000/svg" viewBox="0 -0.5 43 11" shape-rendering="crispEdges">
<metadata>Made with Pixels to Svg https://codepen.io/shshaw/pen/XbxvNj</metadata>
<path stroke="#404040" d="M1 0h5M0 1h2M5 1h2M32 1h3M0 2h1M2 2h3M6 2h1M32 2h1M34 2h1M0 3h1M2 3h1M4 3h1M6 3h1M8 3h3M12 3h3M16 3h3M20 3h3M24 3h6M32 3h3M36 3h6M0 4h1M2 4h1M4 4h1M6 4h1M8 4h1M10 4h1M12 4h1M14 4h1M16 4h1M18 4h1M20 4h1M22 4h1M24 4h1M26 4h1M29 4h2M32 4h1M34 4h1M36 4h1M38 4h1M41 4h2M0 5h1M2 5h1M4 5h1M6 5h1M8 5h1M10 5h1M12 5h1M14 5h1M16 5h1M18 5h3M22 5h1M24 5h1M27 5h2M30 5h1M32 5h1M34 5h1M36 5h1M39 5h2M42 5h1M0 6h1M2 6h1M4 6h1M6 6h1M8 6h1M10 6h1M12 6h1M14 6h1M16 6h2M19 6h1M21 6h2M24 6h1M26 6h5M32 6h1M34 6h1M36 6h1M38 6h5M0 7h1M2 7h1M4 7h1M6 7h1M8 7h1M10 7h1M12 7h1M14 7h1M17 7h1M19 7h1M21 7h1M24 7h1M26 7h1M32 7h1M34 7h1M36 7h1M38 7h1M0 8h1M2 8h3M6 8h1M8 8h1M10 8h3M14 8h1M17 8h2M20 8h2M24 8h1M26 8h1M32 8h1M34 8h1M36 8h1M38 8h1M0 9h2M5 9h2M8 9h2M14 9h1M18 9h1M20 9h1M24 9h1M26 9h1M32 9h1M34 9h1M36 9h1M38 9h1M1 10h5M9 10h6M18 10h3M24 10h3M32 10h3M36 10h3" />
<path stroke="#f8f0e0" d="M2 1h3M1 2h1M5 2h1M33 2h1M1 3h1M5 3h1M1 4h1M5 4h1M9 4h1M13 4h1M17 4h1M21 4h1M25 4h1M27 4h2M33 4h1M37 4h1M39 4h2M1 5h1M5 5h1M9 5h1M13 5h1M17 5h1M21 5h1M25 5h2M29 5h1M33 5h1M37 5h2M41 5h1M1 6h1M5 6h1M9 6h1M13 6h1M18 6h1M20 6h1M25 6h1M33 6h1M37 6h1M1 7h1M5 7h1M9 7h1M13 7h1M18 7h1M20 7h1M25 7h1M33 7h1M37 7h1M1 8h1M5 8h1M9 8h1M13 8h1M19 8h1M25 8h1M33 8h1M37 8h1M2 9h3M10 9h4M19 9h1M25 9h1M33 9h1M37 9h1" />
</svg>