<svg xmlns="http://www.w3.org/2000/svg" viewBox="0 -0.5 14 14" shape-rendering="crispEdges">
<metadata>Made with Pixels to Svg https://codepen.io/shshaw/pen/XbxvNj</metadata>
<path stroke="#404040" d="M4 0h6M2 1h2M10 1h2M1 2h1M12 2h1M1 3h1M12 3h1M0 4h1M2 4h1M11 4h1M13 4h1M0 5h1M3 5h1M5 5h1M8 5h1M10 5h1M13 5h1M0 6h1M4 6h2M8 6h2M13 6h1M0 7h1M4 7h1M9 7h1M13 7h1M0 8h1M13 8h1M0 9h1M13 9h1M1 10h1M12 10h1M1 11h2M11 11h2M2 12h3M9 12h3M4 13h6" />
<path stroke="#a05850" d="M4 1h1M9 1h1M1 4h1M12 4h1" />
<path stroke="#e07050" d="M5 1h4M2 2h10M2 3h10M3 4h8M1 5h1M4 5h1M6 5h2M9 5h1M12 5h1M1 6h1M6 6h2M12 6h1M1 7h1M6 7h2M12 7h1M2 8h10M4 9h6" />
<path stroke="#d0e8e0" d="M2 5h1M11 5h1M2 6h2M10 6h2M2 7h2M5 7h1M8 7h1M10 7h2M1 8h1M12 8h1M1 9h3M10 9h3M2 10h10M3 11h8M5 12h4" />
</svg>