<svg xmlns="http://www.w3.org/2000/svg" viewBox="0 -0.5 14 14" shape-rendering="crispEdges">
<metadata>Made with Pixels to Svg https://codepen.io/shshaw/pen/XbxvNj</metadata>
<path stroke="#f8b830" d="M4 0h6M2 1h10M1 2h12M1 3h12M0 4h14M0 5h2M3 5h8M12 5h2M0 6h2M4 6h6M12 6h2M0 7h2M4 7h1M6 7h2M9 7h1M12 7h2M0 8h1M2 8h10M13 8h1M0 9h1M4 9h6M13 9h1M1 10h1M12 10h1M1 11h2M11 11h2M2 12h3M9 12h3M4 13h6" />
<path stroke="#f8f8f8" d="M2 5h1M11 5h1M2 6h2M10 6h2M2 7h2M5 7h1M8 7h1M10 7h2M1 8h1M12 8h1M1 9h3M10 9h3M2 10h10M3 11h8M5 12h4" />
</svg>